<?xml version="1.0" encoding="iso-8859-1"?>
<!-- Uploaded to: SVG Repo, www.svgrepo.com, Generator: SVG Repo Mixer Tools -->
<svg version="1.1" id="Layer_1" xmlns="http://www.w3.org/2000/svg" xmlns:xlink="http://www.w3.org/1999/xlink" 
	 viewBox="0 0 512 512" xml:space="preserve">
<circle style="fill:#FFD15D;" cx="256" cy="256" r="256"/>
<path style="fill:#F9B54C;" d="M508.575,297.863L378.04,167.329l-11.254,6.249l-55.842-55.842L188.768,276.111l-54.808,68.56
	l163.902,163.902C405.706,490.832,490.832,405.707,508.575,297.863z"/>
<path style="fill:#FC6F58;" d="M105.158,256c0-15.343,19.247-27.457,23.742-41.3c4.658-14.348-3.631-35.43,5.061-47.373
	c8.778-12.062,31.449-10.65,43.511-19.428c11.943-8.692,17.556-30.737,31.904-35.395c13.843-4.494,31.28,9.893,46.623,9.893
	s32.78-14.388,46.625-9.893c14.348,4.658,19.961,26.703,31.904,35.395c12.062,8.778,34.732,7.366,43.511,19.428
	c8.692,11.943,0.402,33.025,5.06,47.373c4.494,13.845,23.742,25.957,23.742,41.3s-19.247,27.457-23.742,41.3
	c-4.658,14.348,3.631,35.43-5.061,47.373c-8.778,12.062-31.449,10.65-43.511,19.428c-11.943,8.692-17.556,30.737-31.904,35.395
	c-13.845,4.494-31.28-9.893-46.623-9.893s-32.78,14.388-46.625,9.893c-14.348-4.658-19.961-26.703-31.904-35.395
	c-12.062-8.778-34.732-7.366-43.511-19.428c-8.692-11.943-0.402-33.025-5.06-47.373C124.406,283.455,105.158,271.343,105.158,256z"
	/>
<path style="fill:#F1543F;" d="M406.842,256c0-15.343-19.247-27.455-23.742-41.3c-4.658-14.348,3.631-35.43-5.06-47.371
	c-8.778-12.062-31.449-10.65-43.511-19.428c-11.943-8.692-17.556-30.737-31.904-35.395c-13.845-4.496-31.282,9.892-46.625,9.892
	c-0.191,0-0.383-0.012-0.574-0.016V389.62c0.191-0.003,0.383-0.016,0.574-0.016c15.343,0,32.78,14.388,46.623,9.893
	c14.348-4.658,19.961-26.703,31.904-35.395c12.062-8.778,34.733-7.366,43.511-19.428c8.692-11.943,0.402-33.025,5.061-47.373
	C387.594,283.457,406.842,271.343,406.842,256z"/>
<circle style="fill:#FFFFFF;" cx="256" cy="256" r="100.848"/>
<path style="fill:#2C9984;" d="M261.184,245.657h-5.758v-36.202h33.328v-20.687h-33.328v-14.653h-9.769v14.979
	c-18.472,2.284-32.754,16.639-32.754,33.961v9.002c0,17.322,14.283,31.677,32.754,33.961v36.528h-22.411v20.687h22.411v14.653h9.769
	v-14.653h5.758c20.906,0,37.914-15.381,37.914-34.287v-9.002C299.098,261.037,282.09,245.657,261.184,245.657z M233.589,232.057
	v-9.002c0-6.08,5.08-11.24,12.067-12.976v34.952C238.67,243.297,233.589,238.137,233.589,232.057z M278.411,288.946
	c0,7.499-7.727,13.6-17.227,13.6h-5.758v-36.202h5.758c9.5,0,17.227,6.101,17.227,13.6V288.946z"/>
<path style="fill:#D0D1D3;" d="M256,155.152c-0.193,0-0.381,0.014-0.574,0.014v201.668c0.193,0,0.381,0.014,0.574,0.014
	c55.698,0,100.848-45.151,100.848-100.848S311.698,155.152,256,155.152z"/>
<rect x="245.657" y="174.114" style="fill:#2C9984;" width="20.687" height="163.771"/>
<path style="fill:#2A8473;" d="M255.426,337.886h10.917v-14.979c18.472-2.284,32.754-16.639,32.754-33.961v-9.002
	c0-17.322-14.283-31.677-32.754-33.961v-36.528h22.411v-20.687h-22.411v-14.653h-10.917L255.426,337.886L255.426,337.886z
	 M278.411,288.946c0,6.08-5.08,11.24-12.067,12.976v-34.952c6.987,1.736,12.067,6.896,12.067,12.976V288.946z"/>
</svg>