<?xml version="1.0" encoding="iso-8859-1"?>
<!-- Uploaded to: SVG Repo, www.svgrepo.com, Generator: SVG Repo Mixer Tools -->
<svg version="1.1" id="Layer_1" xmlns="http://www.w3.org/2000/svg" xmlns:xlink="http://www.w3.org/1999/xlink" 
	 viewBox="0 0 512 512" xml:space="preserve">
<circle style="fill:#B5F1F4;" cx="256" cy="256" r="256"/>
<path style="fill:#84DBFF;" d="M511.488,271.989L360.296,120.796l-29.189,48.235l-52.955-52.955l-4.687,11.417l51.571,51.571
	L136.271,406.712L242.26,511.631c4.551,0.241,9.13,0.369,13.741,0.369C392.013,512,503.232,405.923,511.488,271.989z"/>
<rect x="161.185" y="142.222" style="fill:#FFFFFF;" width="199.111" height="256"/>
<rect x="255.431" y="142.222" style="fill:#E6F3FF;" width="104.87" height="256"/>
<rect x="189.63" y="196.525" style="fill:#B8C9D9;" width="142.222" height="5.172"/>
<rect x="255.431" y="196.525" style="fill:#A3B2BF;" width="76.421" height="5.172"/>
<rect x="189.63" y="224.97" style="fill:#B8C9D9;" width="142.222" height="5.172"/>
<rect x="255.431" y="224.97" style="fill:#A3B2BF;" width="76.421" height="5.172"/>
<rect x="189.63" y="253.414" style="fill:#B8C9D9;" width="142.222" height="5.172"/>
<g>
	<rect x="255.431" y="253.414" style="fill:#A3B2BF;" width="76.421" height="5.172"/>
</g>
<rect x="189.63" y="281.859" style="fill:#B8C9D9;" width="65.801" height="5.172"/>
<rect x="255.431" y="281.859" style="fill:#A3B2BF;" width="76.421" height="5.172"/>
<polyline style="fill:#B8C9D9;" points="255.426,315.475 255.426,310.303 189.63,310.303 189.63,315.475 "/>
<rect x="255.431" y="310.303" style="fill:#A3B2BF;" width="76.421" height="5.172"/>
<rect x="189.63" y="338.747" style="fill:#B8C9D9;" width="142.222" height="5.172"/>
<rect x="255.431" y="338.747" style="fill:#A3B2BF;" width="76.421" height="5.172"/>
<circle style="fill:#FC6F58;" cx="346.074" cy="131.741" r="17.965"/>
<path style="fill:#F1543F;" d="M346.074,113.778c-0.145,0-0.286,0.019-0.431,0.022v35.887c0.145,0.003,0.284,0.022,0.431,0.022
	c9.921,0,17.965-8.044,17.965-17.965C364.039,121.822,355.995,113.778,346.074,113.778z"/>
<circle style="fill:#FC6F58;" cx="346.074" cy="181.148" r="17.965"/>
<g>
	<path style="fill:#F1543F;" d="M346.074,163.181c-0.145,0-0.286,0.017-0.431,0.022v35.887c0.145,0.003,0.284,0.022,0.431,0.022
		c9.921,0,17.965-8.044,17.965-17.965C364.039,171.223,355.995,163.181,346.074,163.181z"/>
	<circle style="fill:#F1543F;" cx="370.778" cy="156.444" r="17.965"/>
</g>
<circle style="fill:#FC6F58;" cx="321.37" cy="156.444" r="17.965"/>
<circle style="fill:#F9B54C;" cx="346.074" cy="156.444" r="17.965"/>
<path style="fill:#F4A200;" d="M346.074,138.48c-0.145,0-0.286,0.019-0.431,0.022v35.887c0.145,0.003,0.284,0.022,0.431,0.022
	c9.921,0,17.965-8.044,17.965-17.965C364.039,146.525,355.995,138.48,346.074,138.48z"/>
<circle style="fill:#FC6F58;" cx="269.222" cy="124.03" r="11.976"/>
<path style="fill:#F1543F;" d="M269.215,112.054c-0.388,0-0.771,0.022-1.148,0.059v23.836c0.378,0.036,0.76,0.059,1.148,0.059
	c6.615,0,11.976-5.361,11.976-11.976C281.191,117.417,275.83,112.054,269.215,112.054z"/>
<circle style="fill:#FC6F58;" cx="269.222" cy="156.962" r="11.976"/>
<g>
	<path style="fill:#F1543F;" d="M269.215,144.989c-0.388,0-0.771,0.022-1.148,0.059v23.836c0.378,0.036,0.76,0.059,1.148,0.059
		c6.615,0,11.976-5.361,11.976-11.976C281.193,150.352,275.83,144.989,269.215,144.989z"/>
	<circle style="fill:#F1543F;" cx="285.686" cy="140.498" r="11.976"/>
</g>
<circle style="fill:#FC6F58;" cx="252.742" cy="140.498" r="11.976"/>
<circle style="fill:#F9B54C;" cx="269.222" cy="140.498" r="11.976"/>
<path style="fill:#F4A200;" d="M269.215,128.522c-0.388,0-0.771,0.022-1.148,0.059v23.838c0.378,0.036,0.76,0.059,1.148,0.059
	c6.615,0,11.976-5.361,11.976-11.976S275.83,128.522,269.215,128.522z"/>
<circle style="fill:#FC6F58;" cx="388.741" cy="211.092" r="11.976"/>
<path style="fill:#F1543F;" d="M388.741,199.111c-0.193,0-0.383,0.021-0.574,0.029v23.895c0.191,0.009,0.381,0.029,0.574,0.029
	c6.615,0,11.976-5.361,11.976-11.976S395.355,199.111,388.741,199.111z"/>
<circle style="fill:#FC6F58;" cx="388.741" cy="244.019" r="11.976"/>
<g>
	<path style="fill:#F1543F;" d="M388.741,232.046c-0.193,0-0.383,0.021-0.574,0.029v23.895c0.191,0.009,0.381,0.029,0.574,0.029
		c6.615,0,11.976-5.361,11.976-11.976S395.355,232.046,388.741,232.046z"/>
	<circle style="fill:#F1543F;" cx="405.204" cy="227.556" r="11.976"/>
</g>
<circle style="fill:#FC6F58;" cx="372.277" cy="227.556" r="11.976"/>
<circle style="fill:#F9B54C;" cx="388.741" cy="227.556" r="11.976"/>
<path style="fill:#F4A200;" d="M388.741,215.58c-0.193,0-0.383,0.021-0.574,0.029v23.895c0.191,0.009,0.381,0.029,0.574,0.029
	c6.615,0,11.976-5.361,11.976-11.976C400.717,220.943,395.355,215.58,388.741,215.58z"/>
<g>
	<circle style="fill:#FC6F58;" cx="161.185" cy="381.759" r="11.976"/>
	<path style="fill:#FC6F58;" d="M149.209,381.754c0,6.227,4.753,11.34,10.828,11.919v-23.836
		C153.962,370.414,149.209,375.527,149.209,381.754z"/>
</g>
<path style="fill:#F1543F;" d="M161.185,369.778c-0.388,0-0.771,0.022-1.148,0.059v23.836c0.378,0.036,0.76,0.059,1.148,0.059
	c6.615,0,11.976-5.361,11.976-11.976C173.161,375.141,167.8,369.778,161.185,369.778z"/>
<circle style="fill:#FC6F58;" cx="161.185" cy="414.686" r="11.976"/>
<path style="fill:#F1543F;" d="M161.185,402.713c-0.388,0-0.771,0.022-1.148,0.059v23.836c0.378,0.036,0.76,0.059,1.148,0.059
	c6.615,0,11.976-5.361,11.976-11.976C173.161,408.076,167.8,402.713,161.185,402.713z"/>
<path style="fill:#FC6F58;" d="M149.209,414.691c0,6.227,4.753,11.34,10.828,11.919v-23.836
	C153.962,403.351,149.209,408.464,149.209,414.691z"/>
<circle style="fill:#F1543F;" cx="177.648" cy="398.222" r="11.976"/>
<circle style="fill:#FC6F58;" cx="144.717" cy="398.222" r="11.976"/>
<g>
	<circle style="fill:#F9B54C;" cx="161.185" cy="398.222" r="11.976"/>
	<path style="fill:#F9B54C;" d="M149.209,398.222c0,6.227,4.753,11.34,10.828,11.919v-23.836
		C153.962,386.882,149.209,391.995,149.209,398.222z"/>
</g>
<path style="fill:#F4A200;" d="M161.185,386.246c-0.388,0-0.771,0.022-1.148,0.059v23.836c0.378,0.036,0.76,0.059,1.148,0.059
	c6.615,0,11.976-5.361,11.976-11.976C173.161,391.609,167.8,386.246,161.185,386.246z"/>
</svg>